<?xml version="1.0" encoding="utf-8"?>
<!-- Generator: Adobe Illustrator 25.2.1, SVG Export Plug-In . SVG Version: 6.00 Build 0)  -->
<svg version="1.1" id="Layer_1" xmlns="http://www.w3.org/2000/svg" xmlns:xlink="http://www.w3.org/1999/xlink" x="0px" y="0px"
	 viewBox="0 0 1010 310" style="enable-background:new 0 0 1010 310;" xml:space="preserve">
<style type="text/css">
	.st0{fill:#3D1BE2;}
</style>
<g>
	<polygon class="st0" points="5,18.45 60.1,18.45 60.1,155 74,155 74,18.45 129.1,18.45 129.1,5.37 5,5.37 	"/>
	<path class="st0" d="M204.36,2.94c-41.51,0-68.33,30.32-68.33,77.24c0,46.92,26.82,77.25,68.33,77.25s68.33-30.32,68.33-77.25
		C272.69,33.26,245.87,2.94,204.36,2.94z M204.36,144.35c-33.58,0-54.44-24.59-54.44-64.16s20.86-64.16,54.44-64.16
		s54.44,24.58,54.44,64.16S237.94,144.35,204.36,144.35z"/>
	<polygon class="st0" points="396.09,134.04 314.12,5.37 297.63,5.37 297.63,155 311.53,155 311.53,26.33 393.5,155 409.98,155 
		409.98,5.37 396.09,5.37 	"/>
	<path class="st0" d="M506.06,141.92H453.9V84.9h76.42V71.82H453.9V18.45h89.55V5.37H440.01V155h63.94
		C503.95,150.43,504.7,146.03,506.06,141.92z"/>
	<path class="st0" d="M503.95,155c0,22.93,18.59,41.53,41.53,41.53V155H503.95z"/>
	<path class="st0" d="M652.74,280.19l-1.62-10.93c-2.9-20.14-7.71-28.07-21.09-34.06c17.43-6.05,27.39-20.11,27.39-38.8
		c0-25.14-18-41.39-45.84-41.39H587c0-22.93-18.59-41.53-41.53-41.53V155v0H587c0,4.57-0.75,8.97-2.12,13.08h25.88
		c20.82,0,32.76,10.83,32.76,29.72c0,19.17-11.63,29.72-32.76,29.72h-51.4v-33.39c-4.34,1.54-9.02,2.39-13.89,2.39v108.1h13.89
		v-64.02h43.5c26.32,0,32.01,9.43,34.81,30.57l1.42,10.74c1.25,9.35,2.94,15.62,5.84,21.64l0.51,1.06h13.4v-5.5l-0.33-0.48
		C655.15,293.71,653.85,288.14,652.74,280.19z"/>
	<path class="st0" d="M741.33,152.57c-41.51,0-68.33,30.32-68.33,77.25s26.82,77.25,68.33,77.25c41.51,0,68.33-30.32,68.33-77.25
		S782.83,152.57,741.33,152.57z M741.33,293.98c-33.58,0-54.44-24.59-54.44-64.16s20.86-64.16,54.44-64.16s54.44,24.59,54.44,64.16
		S774.9,293.98,741.33,293.98z"/>
	<polygon class="st0" points="991.93,155 959.3,283.94 921.06,155 904.88,155 866.64,283.94 834,155 820.92,155 820.99,160.39 
		858.02,304.63 874.46,304.63 912.97,174.47 951.47,304.63 967.91,304.63 1005,159.92 1005,155 	"/>
</g>
</svg>
